<svg xmlns="http://www.w3.org/2000/svg" viewBox="0 0 500 500"><g id="freepik--background-simple--inject-3"><path d="M104.56,101.63c27.91-59.45,127.05-51.07,165.31-9.26s50.7,68.6,85.21,53,78.52-11.44,81,38.17S398.21,291.78,334,309.13s-64.16,78.76-149.1,66.37c-46.31-6.76-47.36-56.86-40.82-98.3S72.18,170.57,104.56,101.63Z" style="fill:#6464F5"></path><path d="M104.56,101.63c27.91-59.45,127.05-51.07,165.31-9.26s50.7,68.6,85.21,53,78.52-11.44,81,38.17S398.21,291.78,334,309.13s-64.16,78.76-149.1,66.37c-46.31-6.76-47.36-56.86-40.82-98.3S72.18,170.57,104.56,101.63Z" style="fill:#fff;opacity:0.9"></path></g><g id="freepik--Shadow--inject-3"><ellipse id="freepik--path--inject-3" cx="250" cy="416.24" rx="193.89" ry="11.32" style="fill:#f5f5f5"></ellipse></g><g id="freepik--Letter--inject-3"><path d="M399,418.35H222.44a4,4,0,0,1-4-4V293.3l84.59-64a8.87,8.87,0,0,1,10.54-.14L403,293.3V414.38A4,4,0,0,1,399,418.35Z" style="fill:#6464F5"></path><path d="M399,418.35H222.44a4,4,0,0,1-4-4V293.3l84.59-64a8.87,8.87,0,0,1,10.54-.14L403,293.3V414.38A4,4,0,0,1,399,418.35Z" style="opacity:0.2;isolation:isolate"></path><path d="M367.74,361.35h-125a11,11,0,0,0,5-9.23V164.47a10.3,10.3,0,0,1,6-9.35h125a10.3,10.3,0,0,0-6,9.35V352.12a11,11,0,0,1-5,9.23Z" style="fill:#6464F5"></path><path d="M367.74,361.35h-125a11,11,0,0,0,5-9.23V164.47a10.3,10.3,0,0,1,6-9.35h125a10.3,10.3,0,0,0-6,9.35V352.12a11,11,0,0,1-5,9.23Z" style="fill:#fff;opacity:0.7000000000000001;isolation:isolate"></path><path d="M364.08,211.27c-1.77-.88-7.08.08-8.47.24s-2.05.08-3.32.23-1.4,0-1.62-.47-2.44-.16-3-.37-5.55.85-10.89.84-1.76.09-2.53-.84-3.34.69-3.9.79-1.88.14-2.08-.82-1.58,1-2.93.8,1.57-2.31-.28-1.36-6.11,1.36-6.11,1.36l1.35,1c-5.1.08-9.54.16-10.43.24s-1.44.08-2.44-1.53-.89.41-4.66,1.37-4.66.72-6.44-.16-2.66.08-4,.24-2.05.08-3.32.23-1.39,0-1.62-.47-2.44-.16-3-.37-5.55.85-10.89.84-1.76.09-2.53-.84-3.34.69-3.89.79-1.89.14-2.08-.82-1.59,1-2.93.8,1.57-2.31-.29-1.36-6.11,1.36-6.11,1.36" style="fill:none;stroke:#263238;stroke-linecap:round;stroke-linejoin:round"></path><path d="M288.67,173.86c-.56-.21-5.55.85-10.89.84s-1.76.09-2.52-.84-3.35.69-3.9.79-1.89.14-2.08-.82-1.58,1-2.93.8,1.57-2.31-.28-1.35-6.12,1.35-6.12,1.35" style="fill:none;stroke:#263238;stroke-linecap:round;stroke-linejoin:round"></path><path d="M364.08,314.42c-.55-.21-5.54.85-10.88.84s-1.77.09-2.53-.84-3.34.69-3.9.79-1.88.14-2.08-.82-1.58,1-2.93.8,1.57-2.31-.28-1.36-6.12,1.36-6.12,1.36" style="fill:none;stroke:#263238;stroke-linecap:round;stroke-linejoin:round"></path><path d="M255.56,222.71a2.88,2.88,0,0,1,2.25,0l.9-.64c.52.63,1.51.46,2.23.1a4.18,4.18,0,0,1,2.24-.8c-.05.34-.11.69-.16,1a11.46,11.46,0,0,0,3.09-.86.62.62,0,0,0,.26.83,1.62,1.62,0,0,0,.93.14l9.24-.33,1.63-.06a.38.38,0,0,1,.24.46,5.46,5.46,0,0,0,3.09-1.69,1.38,1.38,0,0,0,1.05,1.54,2.83,2.83,0,0,0,2-.36,2.51,2.51,0,0,1,.86-.33.66.66,0,0,1,.71.47c.57-.26,1.18.19,1.79.35a4,4,0,0,0,1.15.07l12.48-.51,3.05.59s4.27-.4,6.12-1.35-1.06,1.11.28,1.35,2.74-1.76,2.93-.8,1.53.92,2.08.82,3.14-1.71,3.9-.78-2.81.82,2.53.83,10.33-1,10.88-.83,2.78-.11,3,.36.34.62,1.62.47,1.93-.07,3.32-.23,2.27-1.11,4.05-.24,2.66,1.12,6.44.16,3.66-3,4.66-1.36,6.84,1.6,7.72,1.52" style="fill:none;stroke:#263238;stroke-linecap:round;stroke-linejoin:round"></path><path d="M363.92,203.09c-.38,0,.38,0,0-.07-.6-.16.57-.61,0-.35-.05-.31-5.64-.49-5.95-.46a2.37,2.37,0,0,0-.86.32,2.83,2.83,0,0,1-2,.36,1.38,1.38,0,0,1-1-1.54,5.53,5.53,0,0,1-3.09,1.7.39.39,0,0,0-.24-.47l-1.63.06-9.24.34a1.72,1.72,0,0,1-.93-.15.62.62,0,0,1-.26-.83,11.46,11.46,0,0,1-3.09.86c.06-.35.11-.7.16-1a4.27,4.27,0,0,0-2.24.8c-.72.36-1.71.53-2.23-.1l-.9.65a2.84,2.84,0,0,0-2.25,0l-9-.88s-4.16.09-4.82-.28-3,.93-3,.93h-3l-3.83.14v-.73a29.58,29.58,0,0,1-4.49.59c-2.16.08-2.66.39-2.76-.59s-2.9.27-5.12.73-1.77.37-2.44-.73-1.5.15-2.66.6a4.73,4.73,0,0,1-3.83,0c-1-.61-5.33.38-7.09.4s-.07-.49-.44-1.34-1.63,1.44-2.82,1.34,1-2.29-.67-2.12a14.77,14.77,0,0,0-4.47,1.85" style="fill:none;stroke:#263238;stroke-linecap:round;stroke-linejoin:round"></path><path d="M356.43,231.6c-.66,0-1.56-.51-1.51-1.95-.45-.44-.94.35-1.37.9s-1.15.61-1.27-.45a1.32,1.32,0,0,1-2.07-.16,1.69,1.69,0,0,1-1.93,1.22l-17.66-.74a2,2,0,0,1-1.24-.35c-.26-.2-.49-.52-.76-.63-.72-.32-1.37.92-2,1.66s-1.72.59-1.83-1c-.75,1.45-1.88,1.87-2.81,1-.42.35-.87.7-1.31.54a2.1,2.1,0,0,1-.77-2,3.36,3.36,0,0,1-2,2.65,3.79,3.79,0,0,1-2.43-.46l-7.09.28a21.73,21.73,0,0,1-7-.57c.06.49-.69.68-1.24.69l-4.66.08a2.52,2.52,0,0,1-1-.13.68.68,0,0,1-.46-.76,6.31,6.31,0,0,1-2.93.06c-.55-.29-1.15.26-1.72.51a3.84,3.84,0,0,1-1.63.21l-8.05-.13c-.72,0-1.57-.08-1.95-.63a9.38,9.38,0,0,0-3.18,2,3.25,3.25,0,0,0,0-1.75,7.76,7.76,0,0,0-2.31,1.32c-.09-1.09-.19-2.18-.29-3.26-1.6.18-2.71,1.7-4.32,1.86a20.66,20.66,0,0,0-2.72-.06c-.71.16-1.57.66-2.07.17-.14-.13-.21-.33-.39-.42a.92.92,0,0,0-.72.07,10.7,10.7,0,0,1-6.43.29" style="fill:none;stroke:#263238;stroke-linecap:round;stroke-linejoin:round"></path><path d="M254.5,252.1s3.41-.4,4.89-1.36-.85,1.12.23,1.36,2.19-1.77,2.35-.81,1.22.93,1.66.83,2.51-1.72,3.12-.79-2.25.83,2,.84,8.27-1,8.71-.84,2.22-.11,2.4.37.27.61,1.29.47,1.55-.07,2.66-.23,1.82-1.12,3.25-.24,2.13,1.11,5.15.16,2.93-3,3.73-1.37,1.24,1.61,1.95,1.53,4.27-.16,8.35-.24l7.38-.25a10.66,10.66,0,0,0,6.42-.28.92.92,0,0,1,.72-.07c.18.09.26.28.4.42.49.48,1.35,0,2.07-.18a22.62,22.62,0,0,1,2.72.07c1.6-.16,2.71-1.68,4.32-1.87.09,1.09.19,2.18.29,3.26a7.68,7.68,0,0,1,2.3-1.31,3.16,3.16,0,0,1,0,1.75,9.14,9.14,0,0,1,3.18-2c.38.55,1.22.62,1.94.63l8.06.13a3.88,3.88,0,0,0,1.63-.21c.57-.25,1.17-.8,1.72-.52a6.18,6.18,0,0,0,2.93-.05.68.68,0,0,0,.46.76,2.52,2.52,0,0,0,1,.12l4.66-.08c.55,0,1.29-.19,1.24-.68,2.27.56,2,.76,4.3.57" style="fill:none;stroke:#263238;stroke-linecap:round;stroke-linejoin:round"></path><path d="M364.08,241.25c-3,.95-1.75.71-3.17-.16s-2.13.08-3.24.24-1.65.08-2.67.23-1.11,0-1.29-.47-1.95-.16-2.4-.37-4.44.85-8.71.84-1.41.09-2-.84-2.67.69-3.12.79-1.51.14-1.66-.83-1.27,1-2.35.81,1.26-2.31-.22-1.36-4.9,1.36-4.9,1.36l-8.45-.26-6.35.07c-.66,0-1.55-.51-1.5-2-.46-.44-.94.35-1.38.9s-1.15.61-1.26-.45a1.33,1.33,0,0,1-2.08-.16,1.69,1.69,0,0,1-1.92,1.22l-17.66-.74a2,2,0,0,1-1.25-.35,4.25,4.25,0,0,0-.75-.63c-.73-.32-1.38.92-2,1.66s-1.73.6-1.83-1c-.76,1.45-1.89,1.87-2.82,1-.42.35-.86.71-1.3.54a2.12,2.12,0,0,1-.78-2,3.38,3.38,0,0,1-2,2.65,3.83,3.83,0,0,1-2.44-.46" style="fill:none;stroke:#263238;stroke-linecap:round;stroke-linejoin:round"></path><path d="M364.08,175.64l-17.66-.75a1.93,1.93,0,0,1-1.24-.35,4.38,4.38,0,0,0-.76-.63c-.72-.31-1.37.92-2,1.67s-1.73.59-1.83-1c-.76,1.45-1.89,1.87-2.82,1-.42.35-.86.71-1.31.55a2.13,2.13,0,0,1-.77-2,3.38,3.38,0,0,1-2,2.65,3.94,3.94,0,0,1-2.44-.46" style="fill:none;stroke:#263238;stroke-linecap:round;stroke-linejoin:round"></path><path d="M364.08,322.88l-17.66-.74a2,2,0,0,1-1.24-.35,4.45,4.45,0,0,0-.76-.64c-.72-.31-1.37.93-2,1.67s-1.73.59-1.83-1c-.76,1.45-1.89,1.87-2.82,1-.42.35-.86.7-1.31.54a2.13,2.13,0,0,1-.77-2,3.38,3.38,0,0,1-2,2.65,3.81,3.81,0,0,1-2.44-.46" style="fill:none;stroke:#263238;stroke-linecap:round;stroke-linejoin:round"></path><path d="M254.5,270.82a16.4,16.4,0,0,0,8-.29,1.41,1.41,0,0,1,.9-.07c.22.09.31.28.49.42.62.48,1.68,0,2.57-.18,1.09-.2,2.25.16,3.37.07,2-.16,3.37-1.68,5.37-1.87l.36,3.26a10.7,10.7,0,0,1,2.86-1.31,2.57,2.57,0,0,1,0,1.75,12.08,12.08,0,0,1,3.95-2,3.41,3.41,0,0,0,2.42.63l10,.13a5.84,5.84,0,0,0,2-.21c.71-.25,1.45-.8,2.14-.51a9.69,9.69,0,0,0,3.64-.06c-.13.3.17.62.56.76a4.16,4.16,0,0,0,1.28.13l5.79-.09c.68,0,1.61-.19,1.54-.68a33.7,33.7,0,0,0,8.7.57l7.14.38a5.59,5.59,0,0,1,3.19,0l1.27-.65c.74.63,2.15.47,3.17.1a8,8,0,0,1,3.18-.8c-.07.35-.15.69-.22,1a21.91,21.91,0,0,0,4.38-.86c-.27.27,0,.67.36.83a3.45,3.45,0,0,0,1.33.15l13.1-.34,2.32-.06c.26.05.43.28.34.47a8,8,0,0,0,4.05-1.69c-.24.67-.93,1.36,0,1.53" style="fill:none;stroke:#263238;stroke-linecap:round;stroke-linejoin:round"></path><path d="M363.88,260.83c-.69-.28.71.26,0,.52s.68.21,0,.21l-11.16-.14a3.46,3.46,0,0,1-2.42-.62,12.26,12.26,0,0,0-3.95,2,2.54,2.54,0,0,0,0-1.74,10.11,10.11,0,0,0-2.86,1.31l-.36-3.26c-2,.19-3.37,1.71-5.37,1.87-1.12.09-2.28-.28-3.37-.07-.89.17-2,.66-2.57.17-.18-.13-.27-.33-.49-.42a1.48,1.48,0,0,0-.9.07,16.16,16.16,0,0,1-8,.29l-2.93.26-17.71.51a8.13,8.13,0,0,1-1.64-.07c-.86-.16-1.73-.61-2.54-.35-.08-.31-.57-.49-1-.47a4.18,4.18,0,0,0-1.21.33,5.54,5.54,0,0,1-2.79.36c-.94-.17-1.73-.87-1.49-1.54a9,9,0,0,1-4.38,1.69c.08-.18-.08-.41-.35-.47l-2.31.07-13.1.33a3.41,3.41,0,0,1-1.33-.14c-.39-.17-.63-.57-.37-.83a21.64,21.64,0,0,1-4.38.86c.08-.35.15-.7.23-1.05a7.8,7.8,0,0,0-3.18.81c-1,.36-2.44.53-3.17-.1l-1.28.64a5.67,5.67,0,0,0-3.19,0" style="fill:none;stroke:#263238;stroke-linecap:round;stroke-linejoin:round"></path><path d="M254.29,281.09a8,8,0,0,0,2.53.22,2.72,2.72,0,0,0,2.12-1.31,1,1,0,0,0,.8,1,2.62,2.62,0,0,0,1.36-.27,2.79,2.79,0,0,0,2.93-.52c.11.8,1.22.88,1.9.51s1.36-1,2.11-.83a5.88,5.88,0,0,1,.79.31,3.77,3.77,0,0,0,1.29.18l18.37.37a2.36,2.36,0,0,0,2-.61,2.45,2.45,0,0,0,2.16.08c.12.53.87.49,1.32.22s.95-.66,1.42-.44c-.05.71.88,1,1.57,1l6.6,0,2.34-.12a5.59,5.59,0,0,1,3.19,0l1.28-.65c.74.63,2.15.46,3.17.1a7.78,7.78,0,0,1,3.18-.8c-.08.35-.15.69-.23,1a21.87,21.87,0,0,0,4.39-.86c-.27.27,0,.67.36.83a3.41,3.41,0,0,0,1.33.15l13.1-.34,2.31-.06c.27.05.43.28.35.47a9.13,9.13,0,0,0,4.38-1.7c-.24.68.56,1.37,1.49,1.54a5.41,5.41,0,0,0,2.79-.36,4.14,4.14,0,0,1,1.22-.32c.43,0,.92.15,1,.46a5.56,5.56,0,0,1,2.54.35,7.46,7.46,0,0,0,1.64.07" style="fill:none;stroke:#263238;stroke-linecap:round;stroke-linejoin:round"></path><path d="M403,293.3V414.39a4,4,0,0,1-3.57,3.94l-.4,0H222.44l-.41,0a4,4,0,0,1-3.55-3.94V293.3l78.61,54.26,4.3,3,6.9,4.77,7.29-4.77,4.54-3Z" style="fill:#6464F5"></path><path d="M403,412.81V414a4.23,4.23,0,0,1-3.57,4.32l-.4,0H222.44l-.41,0a4.23,4.23,0,0,1-3.55-4.32v-1.2l78.61-65.25,4.3,3,6.9,4.77,7.29-4.77,4.54-3Z" style="opacity:0.2;isolation:isolate"></path><path d="M403,413.3v1.09a4,4,0,0,1-4,4H222.44a4,4,0,0,1-4-4V413.3l82.91-62.77,1.68-1.27a8.88,8.88,0,0,1,10.54-.14l2,1.41Z" style="fill:#6464F5"></path></g><g id="freepik--mail-box--inject-3"><rect x="105.39" y="257.03" width="7.54" height="161.32" transform="translate(218.32 675.38) rotate(180)" style="fill:#263238"></rect><path d="M99.26,231.26h23a10.65,10.65,0,0,1,10.65,10.65v17.33a0,0,0,0,1,0,0H88.61a0,0,0,0,1,0,0V241.91A10.65,10.65,0,0,1,99.26,231.26Z" style="fill:#6464F5"></path><path d="M122.52,231.26h.75a9.6,9.6,0,0,1,9.6,9.6v18.38a0,0,0,0,1,0,0H112.93a0,0,0,0,1,0,0V240.85A9.6,9.6,0,0,1,122.52,231.26Z" style="opacity:0.4;isolation:isolate"></path><path d="M112.93,258.74h19.94l6.55,11.17c2,3.42-.83,6.19-6.34,6.19h0c-5.5,0-11.59-2.77-13.6-6.19Z" style="fill:#6464F5"></path><path d="M112.93,258.74h19.94l6.55,11.17c2,3.42-.83,6.19-6.34,6.19h0c-5.5,0-11.59-2.77-13.6-6.19Z" style="opacity:0.2;isolation:isolate"></path><polygon points="112.93 242.58 116.29 242.58 119.81 257.74 112.93 257.74 112.93 242.58" style="fill:#fff;opacity:0.4;isolation:isolate"></polygon><polygon points="117.5 245.64 119.81 245.64 125.71 257.74 123.86 257.74 117.5 245.64" style="fill:#fff;opacity:0.4;isolation:isolate"></polygon><polygon points="122.06 248.72 123.55 248.72 131.45 257.74 130.28 257.74 122.06 248.72" style="fill:#fff;opacity:0.4;isolation:isolate"></polygon><path d="M106,245.39V225.61h-2.45v2.07h1.34v17.71a2.73,2.73,0,0,0-1.24,2.5c0,1.46.81,2.64,1.79,2.64s1.79-1.18,1.79-2.64A2.75,2.75,0,0,0,106,245.39Z" style="fill:#6464F5"></path><path d="M106,245.39V225.61h-2.45v2.07h1.34v17.71a2.73,2.73,0,0,0-1.24,2.5c0,1.46.81,2.64,1.79,2.64s1.79-1.18,1.79-2.64A2.75,2.75,0,0,0,106,245.39Z" style="fill:#fff;opacity:0.7000000000000001;isolation:isolate"></path><polygon points="112.93 277.63 105.39 272.95 105.39 418.35 112.93 418.35 112.93 277.63" style="fill:#fff;opacity:0.2;isolation:isolate"></polygon><path d="M86.57,418.35h50.34s1.88-2.51-10.15-2.76c0,0,10.89-9.57,9.24-12.32s-10.29,7.31-10.29,7.31,5.31-10.88,3.45-14S121.6,407,121.6,407s-1.7-7.86-4.1-8.63-8.34,8.92-8.34,8.92-7.77-20.42-11.85-18.94,2.59,15.54,2.59,15.54-7-6.32-11.29-4.08,2.78,11.4,2.78,11.4S86.2,412.84,86.57,418.35Z" style="fill:#6464F5"></path><path d="M86.57,418.35h50.34s1.88-2.51-10.15-2.76c0,0,10.89-9.57,9.24-12.32s-10.29,7.31-10.29,7.31,5.31-10.88,3.45-14S121.6,407,121.6,407s-1.7-7.86-4.1-8.63-8.34,8.92-8.34,8.92-7.77-20.42-11.85-18.94,2.59,15.54,2.59,15.54-7-6.32-11.29-4.08,2.78,11.4,2.78,11.4S86.2,412.84,86.57,418.35Z" style="fill:#fff;opacity:0.4;isolation:isolate"></path></g><g id="freepik--Character--inject-3"><path d="M191,165.27a8.06,8.06,0,0,1,7.54-2.53c5,.79,15,9.51,14.07,18.93s-3.83,18-6.79,18.38c0,0-2.63-3.35-16.45-2.93s-11.31-8.32-9.06-15.29S181.9,162,191,165.27Z" style="fill:#263238"></path><path d="M209.46,204.08c2.75,2.57,11.68,17.7,12.73,18.36s1.5-6.23,1.5-6.23l4.87-.86s2.63,16.69-4.43,15.17c-7.92-1.72-18.32-16.16-18.32-16.16s.75-4.68,1.13-6.39S209.46,204.08,209.46,204.08Z" style="fill:#6464F5"></path><path d="M224.13,230.52c-6.12-1.33-13.71-10.24-16.85-14.23-.93-1.18-1.47-1.93-1.47-1.93s.4-2.47.75-4.47c.14-.76.28-1.45.38-1.92.39-1.72,2.52-3.89,2.52-3.89,2.75,2.57,11.68,17.7,12.73,18.36s1.5-6.23,1.5-6.23l4.87-.86S231.19,232,224.13,230.52Z" style="fill:#fff;opacity:0.4;isolation:isolate"></path><path d="M207.28,216.29c-.93-1.18-1.47-1.93-1.47-1.93s.4-2.47.75-4.47A12.42,12.42,0,0,1,207.28,216.29Z" style="opacity:0.2;isolation:isolate"></path><path d="M205.12,216.42c-1.28,3.84-2.28,7.16-3.09,10.14a113.62,113.62,0,0,0-4.19,22.88l-30.79-3.31c-.81-22,0-34.13.67-40.17.75-6.43,1.75-6.65,1.75-6.65s7-.54,13.08-.37a98.29,98.29,0,0,1,14,1.75,91.49,91.49,0,0,1,12.91,3.39c-.75,2-1.43,3.92-2.06,5.71C206.56,212.17,205.8,214.37,205.12,216.42Z" style="fill:#6464F5"></path><path d="M209.46,204.08c-.75,2-1.43,3.92-2.06,5.71-.84,2.38-1.6,4.58-2.28,6.63-1.28,3.84-2.28,7.16-3.09,10.14a113.62,113.62,0,0,0-4.19,22.88l-30.79-3.31c-.1-2.71-.17-5.26-.23-7.68-.12-5.44-.14-10.15-.08-14.22q0-1.08,0-2.1c.14-6.72.47-11.52.8-14.84.06-.48.1-.92.15-1.33.75-6.43,1.75-6.65,1.75-6.65s7-.54,13.08-.38a99.76,99.76,0,0,1,14,1.76A91.49,91.49,0,0,1,209.46,204.08Z" style="fill:#fff;opacity:0.4;isolation:isolate"></path><path d="M170.57,208.39s-.73,8.12-3.8,13.74c.14-6.72.47-11.52.8-14.84A13.5,13.5,0,0,1,170.57,208.39Z" style="opacity:0.2;isolation:isolate"></path><path d="M196.29,237.17l-9.12-1.1s-1.37,2.72-3.54,3-7.23-3.6-7.23-3.6a26.24,26.24,0,0,1-9.58,3c-.12-5.44-.14-10.15-.08-14.22,2.79.2,10,1.19,20.19,5.79C188.18,230.58,196.29,237.17,196.29,237.17Z" style="opacity:0.2;isolation:isolate"></path><polygon points="225.38 409.56 219.07 410.67 216.48 402.07 214.12 394.18 221.39 391.63 223.51 401.12 225.38 409.56" style="fill:#e4897b"></polygon><polygon points="223.54 401.32 216.51 402.24 214.14 394.26 221.4 391.68 223.54 401.32" style="opacity:0.2;isolation:isolate"></polygon><polygon points="183.27 412.46 176.86 412.46 175.81 403.44 174.86 395.21 182.46 393.94 182.89 403.74 183.27 412.46" style="fill:#e4897b"></polygon><polygon points="182.89 403.83 175.81 403.51 174.86 395.24 182.46 393.96 182.89 403.83" style="opacity:0.2;isolation:isolate"></polygon><path d="M224.13,396.31l-10.37,1.83c-10.46-26.07-17.9-47.83-23.16-65.89-2.83-9.74-5.19-18.41-6.89-26.1l.32,28.38v63.93H173.81C148.2,276.46,166.52,246,166.52,246L197,243.56a138.33,138.33,0,0,1,2.57,17.21l1.38,10.17,12,61.87Z" style="fill:#263238"></path><path d="M190.6,332.25c-2.83-9.74-5-18.41-6.73-26.1a240.09,240.09,0,0,1,2-27.21S190.34,314,190.6,332.25Z" style="opacity:0.2;isolation:isolate"></path><polygon points="166.96 241.11 198.53 242.96 198.03 248.4 166.22 246.48 166.96 241.11"></polygon><path d="M188.74,242.6a2.2,2.2,0,0,0-1.47-.72l-3.88-.25a1.61,1.61,0,0,0-1.76,1.67v2.5a2.3,2.3,0,0,0,1.93,2.22l.17,0,3.88.24a1.61,1.61,0,0,0,1.75-1.67v-2.49A2.24,2.24,0,0,0,188.74,242.6Zm-1.22,4.67-3.88-.24a1.05,1.05,0,0,1-.72-.35,1.11,1.11,0,0,1-.3-.74v-2.49a.79.79,0,0,1,.86-.81l3.88.24h.08a1.14,1.14,0,0,1,.63.35,1.08,1.08,0,0,1,.3.73v.38a.42.42,0,0,0-.15,0l-1.09-.08a.57.57,0,0,0-.61.62.81.81,0,0,0,.71.72l1.09.08h.05v.82A.78.78,0,0,1,187.52,247.27Z" style="fill:#fff"></path><path d="M175.36,408.09c0-.66,8.24-.14,8.24-.14s5.05,5.14,10,6.3,2.17,4.1-3.32,4.1H176.66C172.76,418.35,175.2,415,175.36,408.09Z" style="fill:#263238"></path><path d="M187.92,410.05a10.29,10.29,0,0,1-3.41-1l-.07-.05h0l0,0a.25.25,0,0,1,0-.17c0-.08.72-2,1.84-2.46a1.23,1.23,0,0,1,1.06,0q.57.27.54.69c0,.43-.61.87-1.28,1.22a3.37,3.37,0,0,1,1.85.2.89.89,0,0,1,.43.56.81.81,0,0,1-.19.88A1.17,1.17,0,0,1,187.92,410.05Zm-2.65-1.18c1.21.52,2.71,1,3.1.65,0,0,.14-.11,0-.43a.44.44,0,0,0-.23-.29A5.41,5.41,0,0,0,185.27,408.87Zm1.47-2.26a.86.86,0,0,0-.34.07,3.69,3.69,0,0,0-1.41,1.77c1.22-.47,2.4-1.1,2.42-1.47,0-.12-.18-.23-.29-.28A.92.92,0,0,0,186.74,406.61Z" style="fill:#263238"></path><path d="M217.36,408.09c0-.66,8.24-.14,8.24-.14s5.05,5.14,10,6.3,2.17,4.1-3.32,4.1H218.66C214.76,418.35,217.2,415,217.36,408.09Z" style="fill:#263238"></path><path d="M229.92,410.05a10.29,10.29,0,0,1-3.41-1l-.07-.05h0l0,0a.25.25,0,0,1,0-.17c0-.08.72-2,1.84-2.46a1.23,1.23,0,0,1,1.06,0q.57.27.54.69c0,.43-.61.87-1.28,1.22a3.37,3.37,0,0,1,1.85.2.89.89,0,0,1,.43.56.81.81,0,0,1-.19.88A1.17,1.17,0,0,1,229.92,410.05Zm-2.65-1.18c1.21.52,2.71,1,3.1.65,0,0,.14-.11,0-.43a.44.44,0,0,0-.23-.29A5.41,5.41,0,0,0,227.27,408.87Zm1.47-2.26a.86.86,0,0,0-.34.07,3.69,3.69,0,0,0-1.41,1.77c1.22-.47,2.4-1.1,2.42-1.47,0-.12-.18-.23-.29-.28A.92.92,0,0,0,228.74,406.61Z" style="fill:#263238"></path><path d="M218.43,197.17s-8.77,8.14-9.13,11.1-2.36,14.17-2.36,14.17h15.25s2.38-10.74,3.56-12.65,7.52-7.25,7.52-7.25Z" style="fill:#6464F5"></path><path d="M218.43,197.17s-8.77,8.14-9.13,11.1-2.36,14.17-2.36,14.17h15.25s2.38-10.74,3.56-12.65,7.52-7.25,7.52-7.25Z" style="fill:#fff;opacity:0.7000000000000001;isolation:isolate"></path><path d="M174.16,199a21.15,21.15,0,0,0,15.2,9.78c10.39,1.19,14-6.6,14-6.6S189.36,197.17,174.16,199Z" style="fill:#eec1bb"></path><path d="M189.67,207.18c-6.5-3.45-7.45-7.14-7.45-7.14,5.88-2.45,4.95-10.89,4.95-10.89l7.64,4.64a26.21,26.21,0,0,0-1.63,3.33c-1.94,5,.29,5.87.29,5.87C193.9,206.23,189.67,207.18,189.67,207.18Z" style="fill:#eec1bb"></path><path d="M194.81,193.79a26.21,26.21,0,0,0-1.63,3.33c-5.55-2.09-6-8-6-8Z" style="opacity:0.2;isolation:isolate"></path><path d="M198.94,169.1c7.29,2.3,8.4,7,6.56,14.63-2.3,9.6-6.49,15.61-15,10.72C179,187.82,186.83,165.27,198.94,169.1Z" style="fill:#eec1bb"></path><path d="M200.91,181.83a16.13,16.13,0,0,0,1.17,3.7,2.1,2.1,0,0,1-2.18.21Z" style="fill:#d4827d"></path><path d="M196.64,179.83c-.17.6-.64,1-1,.88s-.59-.7-.42-1.31.65-1,1-.88S196.82,179.22,196.64,179.83Z" style="fill:#263238"></path><path d="M196.05,178.5l1.47-.13S196.54,179.28,196.05,178.5Z" style="fill:#263238"></path><path d="M204.18,181.88c-.18.6-.65,1-1.05.88s-.59-.7-.41-1.3.64-1,1.05-.88S204.35,181.28,204.18,181.88Z" style="fill:#263238"></path><path d="M203.59,180.56l1.46-.14S204.08,181.34,203.59,180.56Z" style="fill:#263238"></path><path d="M198.16,174.77a4,4,0,0,0-3.51.1" style="fill:none;stroke:#263238;stroke-linecap:round;stroke-linejoin:round;stroke-width:0.7246800000000001px"></path><path d="M203.55,176.14a3.58,3.58,0,0,1,2.72,1.51" style="fill:none;stroke:#263238;stroke-linecap:round;stroke-linejoin:round;stroke-width:0.7246800000000001px"></path><path d="M197.93,188.28a18.78,18.78,0,0,0-1.65,2.26l-.46-.19c-2-.89-2.71-2-2.82-2.92a2.88,2.88,0,0,1,.19-1.35,2.92,2.92,0,0,1,.37-.69,10.58,10.58,0,0,0,3.67,2.57C197.65,188.17,197.93,188.28,197.93,188.28Z" style="fill:#263238"></path><path d="M197.23,188l-.5.66c-1.93-.84-3.18-1.69-3.54-2.54a2.92,2.92,0,0,1,.37-.69A10.58,10.58,0,0,0,197.23,188Z" style="fill:#fff"></path><path d="M195.82,190.35c-2-.89-2.71-2-2.82-2.92a7,7,0,0,1,2.08,1.44A2.6,2.6,0,0,1,195.82,190.35Z" style="fill:#de5753"></path><path d="M187.09,178.87s5.3-4.91,6.24-9.7c0,0,16.31-1.34,12.39,13.55,0,0,5.53-12.57-6.91-16.82s-18.18,14.1-13.44,21.6C185.37,187.5,183.79,182,187.09,178.87Z" style="fill:#263238"></path><path d="M187.79,180.78a3.35,3.35,0,0,0-2.52-4c-2.34-.46-4.88,3.83.39,6.72C186.41,183.91,187.12,183.26,187.79,180.78Z" style="fill:#eec1bb"></path><path d="M228.28,215.4l-.38-3.21s.74-2,.38-2.82c-.68-1.63-5-3.64-5.65-4s-3.7,4.49-3.3,5.47,5.41,3.23,5.41,3.23v2Z" style="fill:#eec1bb"></path><path d="M201.84,229.73l-4.14-5.87s-10.63,1.23-10.77,1.55L183.68,233a.66.66,0,0,0,.39.88l13.52,4.58a.66.66,0,0,0,.81-.36l3.39-7.62A1.61,1.61,0,0,0,201.84,229.73Z" style="fill:#6464F5"></path><path d="M201.87,230a11.93,11.93,0,0,1-6.25.6c-3.49-.78-8.69-5.21-8.69-5.21.14-.32,10.77-1.55,10.77-1.55l4.14,5.87S201.86,229.85,201.87,230Z" style="opacity:0.1;isolation:isolate"></path><path d="M187.63,225.59A49.29,49.29,0,0,0,201.87,230S193.81,227.32,187.63,225.59Z" style="opacity:0.1;isolation:isolate"></path><path d="M168.3,228.93l11.73.85s1.85-1.24,2.85-1,6.34,3.16,6.45,4-2.73,4.62-4,4.44-5.53-3.4-5.82-3.86l-14,.26Z" style="fill:#eec1bb"></path><path d="M170.38,199.25c1.41.45,2.53,4.83-1.16,12.27,0,0-5,11.29-4,13.18,1.13,2.29,11.21,4.16,11.21,4.16l-.8,6.46s-13.37,1.85-17.19-6.49S165.62,197.71,170.38,199.25Z" style="fill:#6464F5"></path><path d="M170.38,199.25c1.41.45,2.53,4.83-1.16,12.27,0,0-5,11.29-4,13.18,1.13,2.29,11.21,4.16,11.21,4.16l-.8,6.46s-13.37,1.85-17.19-6.49S165.62,197.71,170.38,199.25Z" style="fill:#fff;opacity:0.4;isolation:isolate"></path><path d="M197.51,165.56s6-4.24,12.73,5.12a19.53,19.53,0,0,1,2.64,18.51" style="fill:none;stroke:#263238;stroke-linecap:round;stroke-linejoin:round;stroke-width:0.5px"></path></g></svg>